<?xml version="1.0" encoding="iso-8859-1"?>
<!-- Generator: Adobe Illustrator 19.0.0, SVG Export Plug-In . SVG Version: 6.00 Build 0)  -->
<svg version="1.1" id="Layer_1" xmlns="http://www.w3.org/2000/svg" xmlns:xlink="http://www.w3.org/1999/xlink" x="0px" y="0px"
	 viewBox="0 0 511.981 511.981" style="enable-background:new 0 0 511.981 511.981;" xml:space="preserve">
<path style="fill:#E6E9ED;" d="M263.436,387.112c-14.523-14.531-18.93-34.219-13.094-58.515c4.688-19.499,14.398-34.655,14.5-34.796
	l-8.945-5.812l-8.938-5.828c-0.469,0.719-11.577,17.921-17.21,40.827c-7.82,31.811-1.391,59.217,18.601,79.2
	c14.531,14.53,18.953,34.233,13.141,58.514c-4.656,19.499-14.352,34.655-14.438,34.796l0,0c-1.094,1.672-1.727,3.672-1.727,5.812
	c0,5.89,4.773,10.671,10.664,10.671c3.742,0,7.031-1.938,8.938-4.859h0.008c0.469-0.719,11.554-17.921,17.147-40.827
	C289.865,434.485,283.428,407.095,263.436,387.112z"/>
<path style="fill:#EC87C0;" d="M322.645,0c-26.108,0-49.718,10.726-66.654,28.015C239.054,10.726,215.445,0,189.329,0
	c-51.545,0-93.333,41.779-93.333,93.325c0,106.66,159.995,205.32,159.995,205.32s159.995-98.66,159.995-205.32
	C415.986,41.779,374.206,0,322.645,0z"/>
<g style="opacity:0.2;">
	<path style="fill:#FFFFFF;" d="M322.645,0c-3.594,0-7.156,0.211-10.655,0.609c46.529,5.289,82.652,44.779,82.652,92.716
		c0,89.855-113.527,174.033-149.315,198.32c6.688,4.562,10.664,7,10.664,7s159.995-98.66,159.995-205.32
		C415.986,41.779,374.206,0,322.645,0z"/>
</g>
<path style="fill:#D770AD;" d="M284.771,291.114c-2.094-2.093-4.812-3.124-7.547-3.124l0,0h-42.662l0,0
	c-2.727,0-5.461,1.031-7.539,3.124c-4.164,4.156-4.172,10.906,0,15.078c2.078,2.078,4.812,3.125,7.547,3.125h42.654
	c2.734,0,5.453-1.047,7.547-3.125C288.928,302.02,288.928,295.27,284.771,291.114z"/>
<g>
</g>
<g>
</g>
<g>
</g>
<g>
</g>
<g>
</g>
<g>
</g>
<g>
</g>
<g>
</g>
<g>
</g>
<g>
</g>
<g>
</g>
<g>
</g>
<g>
</g>
<g>
</g>
<g>
</g>
</svg>
