<?xml version="1.0" encoding="iso-8859-1"?>
<!-- Generator: Adobe Illustrator 19.0.0, SVG Export Plug-In . SVG Version: 6.00 Build 0)  -->
<svg version="1.1" id="Capa_1" xmlns="http://www.w3.org/2000/svg" xmlns:xlink="http://www.w3.org/1999/xlink" x="0px" y="0px"
	 viewBox="0 0 512 512" style="enable-background:new 0 0 512 512;" xml:space="preserve">
<circle style="fill:#FFD93B;" cx="256" cy="256" r="256"/>
<path style="fill:#3E4347;" d="M256,424.56c-68.768,0-129.2-44.064-150.368-109.648c-2.032-6.304,1.424-13.072,7.728-15.104
	c6.336-2.048,13.072,1.424,15.104,7.728C146.432,363.168,197.68,400.56,256,400.56s109.568-37.376,127.536-93.024
	c2.032-6.304,8.768-9.776,15.104-7.728c6.304,2.032,9.76,8.8,7.728,15.104C385.2,380.496,324.768,424.56,256,424.56z"/>
<path style="fill:#F4C534;" d="M512,256c0,141.44-114.64,256-256,256c-80.48,0-152.32-37.12-199.28-95.28
	c43.92,35.52,99.84,56.72,160.72,56.72c141.36,0,256-114.56,256-256c0-60.88-21.2-116.8-56.72-160.72
	C474.8,103.68,512,175.52,512,256z"/>
<g>
	<path style="fill:#3E4347;" d="M213.44,214.176c-12.032-16.416-33.728-27.328-58.464-27.328
		c-24.848,0.112-46.544,11.024-58.576,27.44c0.56-31.824,26.544-57.456,58.576-57.456
		C186.784,156.832,212.88,182.352,213.44,214.176z"/>
	<path style="fill:#3E4347;" d="M415.616,214.176c-12.032-16.416-33.728-27.328-58.464-27.328
		c-24.848,0.112-46.544,11.024-58.576,27.44c0.56-31.824,26.544-57.456,58.576-57.456
		C388.976,156.832,415.056,182.352,415.616,214.176z"/>
</g>
<g>
</g>
<g>
</g>
<g>
</g>
<g>
</g>
<g>
</g>
<g>
</g>
<g>
</g>
<g>
</g>
<g>
</g>
<g>
</g>
<g>
</g>
<g>
</g>
<g>
</g>
<g>
</g>
<g>
</g>
</svg>
