<?xml version="1.0" encoding="iso-8859-1"?>
<!-- Generator: Adobe Illustrator 19.0.0, SVG Export Plug-In . SVG Version: 6.00 Build 0)  -->
<svg version="1.1" id="Capa_1" xmlns="http://www.w3.org/2000/svg" xmlns:xlink="http://www.w3.org/1999/xlink" x="0px" y="0px"
	 viewBox="0 0 512 512" style="enable-background:new 0 0 512 512;" xml:space="preserve">
<path style="fill:#00CCB2;" d="M272,437c0,8.291,6.709,15,15,15s15-6.709,15-15V268.321l-13.683-26.091L272,276.893V437z"/>
<path style="fill:#00AB94;" d="M482,377c0,8.291,6.709,15,15,15s15-6.709,15-15V208.32l-14.253-25.927L482,216.893V377z"/>
<path style="fill:#FEA832;" d="M242,167c0,41.4-33.6,75-75,75c-8.401,0-15-6.601-15-15c0-8.401,6.599-15,15-15
	c24.901,0,45-20.101,45-45c0-14.401-6.599-27.601-18.3-36.301c-24-17.401-51.4-39.699-72.7-66.4V302c0,8.399-6.599,15-15,15
	s-15-6.601-15-15V15c0-6.601,4.2-12.301,10.499-14.401C103.001,0.3,104.5,0,106,0c4.799,0,9.6,2.399,12.599,6.599l17.1,26.1
	c19.801,29.401,48.701,53.901,75.7,73.7C230.6,120.5,242,143.299,242,167z"/>
<path style="fill:#FF8700;" d="M242,167c0,41.4-33.6,75-75,75c-8.401,0-15-6.601-15-15c0-8.401,6.599-15,15-15
	c24.901,0,45-20.101,45-45c0-14.401-6.599-27.601-18.3-36.301c-24-17.401-51.4-39.699-72.7-66.4V302c0,8.399-6.599,15-15,15V0
	c4.799,0,9.6,2.399,12.599,6.599l17.1,26.1c19.801,29.401,48.701,53.901,75.7,73.7C230.6,120.5,242,143.299,242,167z"/>
<path style="fill:#00EED0;" d="M242,512c-33.091,0-60-26.909-60-60s26.909-60,60-60s60,26.909,60,60S275.091,512,242,512z"/>
<path style="fill:#FFD400;" d="M106,262.7C95.2,250.099,78.999,242,61,242c-32.999,0-61,26.999-61,60c0,32.999,28.001,60,61,60
	c17.999,0,34.2-8.101,45-20.7c9.6-10.501,15-24.3,15-39.3S115.6,273.199,106,262.7z"/>
<path style="fill:#00CCB2;" d="M452,452c-33.091,0-60-26.909-60-60s26.909-60,60-60s60,26.909,60,60S485.091,452,452,452z"/>
<path style="fill:#FDBF00;" d="M121,302c0,15-5.4,28.799-15,39.3v-78.6C115.6,273.199,121,287,121,302z"/>
<path style="fill:#00EED0;" d="M506,124.999c-3.6-2.699-8.699-3.6-13.2-2.401L392,151.399l-109.2,31.199
	c-6.299,1.8-10.8,7.8-10.8,14.401v79.799l30-8.399l90-25.801l90-25.8l30-8.399V137C512,132.199,509.9,128,506,124.999z"/>
<path style="fill:#00CCB2;" d="M512,137v71.4l-30,8.399l-90,25.8V151.4l100.8-28.801c4.501-1.199,9.6-0.298,13.2,2.401
	C509.9,128,512,132.199,512,137z"/>
<g>
</g>
<g>
</g>
<g>
</g>
<g>
</g>
<g>
</g>
<g>
</g>
<g>
</g>
<g>
</g>
<g>
</g>
<g>
</g>
<g>
</g>
<g>
</g>
<g>
</g>
<g>
</g>
<g>
</g>
</svg>
