<svg id="Capa_1" enable-background="new 0 0 512 512" height="512" viewBox="0 0 512 512" width="512" xmlns="http://www.w3.org/2000/svg"><g><g><ellipse cx="255.793" cy="256.698" fill="#fff7bf" rx="245.805" ry="245.851" transform="matrix(.707 -.707 .707 .707 -106.593 256.058)"/><g><g><path d="m395.29 282.373v-11.969h-278.878v11.969c0 14.124 2.1 27.758 6.005 40.605h266.869c3.904-12.848 6.004-26.481 6.004-40.605z" fill="#faf7f5"/><path d="m188.417 404.452c-31.397-17.383-55.373-46.523-65.996-81.469h266.859c-8.691 28.594-26.327 53.305-49.651 70.867-5.175 3.894-10.634 7.442-16.344 10.602" fill="#ff7d97"/></g><path d="m323.285 404.452c-19.976 11.064-42.965 17.362-67.434 17.362s-47.458-6.298-67.434-17.362c14.035-22.464 38.986-37.401 67.434-37.401 21.949 0 41.821 8.902 56.213 23.283 4.251 4.25 8.03 8.985 11.221 14.118z" fill="#ffbecb"/></g><path d="m448.868 24.518c-16.494 0-28.849 7.379-37.353 16.91-.143.143-.274.293-.404.449-8.529-9.746-21.015-17.359-37.763-17.359-29.839 0-52.983 24.666-52.983 56.333 0 61.869 90.745 105.054 90.745 105.054l.404-.012s90.336-43.173 90.336-105.042c.001-31.667-23.142-56.333-52.982-56.333z" fill="#ff7d97"/></g><g><g><path d="m499.825 291.47c-5.423-1.008-10.65 2.573-11.659 8.003-20.747 111.562-118.301 192.527-231.97 192.527h-.022c-130.132-.012-236.013-105.892-236.025-236.024-.006-63.038 24.537-122.299 69.107-166.87 44.567-44.566 103.814-69.106 166.848-69.106h.023c25.509.002 50.421 4.008 74.278 11.925-12.389 12.038-20.038 29.368-20.038 48.927 0 67.41 92.51 112.209 96.448 114.083 1.344.639 2.812.97 4.297.97.1 0 .201-.001.302-.004l.404-.012c1.39-.042 2.756-.374 4.01-.973 2.112-1.009 29.814-14.473 54.923-37.216 8.002 17.432 13.831 35.762 17.366 54.647.899 4.807 5.099 8.162 9.817 8.162.61 0 1.23-.056 1.852-.173 5.429-1.016 9.006-6.241 7.989-11.669-4.302-22.982-11.732-45.205-22.109-66.147 14.869-17.195 26.186-38.043 26.186-61.668 0-37.196-27.665-66.334-62.982-66.334-14.203 0-27.09 4.616-37.763 13.442-8.648-7.139-21.022-13.442-37.758-13.442-7.666 0-14.971 1.373-21.711 3.903-30.36-12.221-62.479-18.418-95.51-18.421h-.025c-68.371 0-132.647 26.623-180.989 74.964-48.348 48.349-74.971 112.634-74.965 181.014.006 68.379 26.641 132.669 74.997 181.025s112.646 74.991 181.026 74.997h.024c123.291 0 229.126-87.846 251.632-208.87 1.01-5.43-2.573-10.65-8.003-11.66zm-96.24-243.007c1.917 2.19 4.727 3.414 7.634 3.376 2.872-.021 5.626-1.314 7.507-3.482.085-.088.169-.178.25-.27 8.034-9.003 18.091-13.568 29.893-13.568 24.102 0 42.982 20.352 42.982 46.334 0 47.751-63.647 84.89-80.565 93.916-17.026-9.021-80.92-46.074-80.92-93.916 0-25.982 18.88-46.334 42.983-46.334 11.966 0 22.139 4.691 30.236 13.944z"/><path d="m509.34 253.41c-1.638-3.93-5.694-6.455-9.949-6.147-4.154.3-7.737 3.24-8.89 7.232-1.155 3.999.392 8.459 3.787 10.871 3.371 2.395 7.925 2.463 11.372.185 3.944-2.607 5.461-7.794 3.68-12.141z"/><path d="m318.572 225.454 17.35-17.35 17.349 17.35c3.905 3.906 10.235 3.906 14.143 0 3.905-3.905 3.905-10.237 0-14.142l-24.42-24.421c-1.875-1.876-4.419-2.929-7.071-2.929s-5.195 1.054-7.071 2.929l-24.421 24.421c-3.905 3.905-3.905 10.237 0 14.143 1.953 1.953 4.512 2.929 7.071 2.929 2.558-.002 5.116-.978 7.07-2.93z"/><path d="m158.432 225.454 17.35-17.35 17.35 17.35c1.953 1.953 4.512 2.929 7.071 2.929s5.119-.976 7.071-2.929c3.905-3.905 3.905-10.237 0-14.143l-24.421-24.421c-3.905-3.905-10.237-3.905-14.142 0l-24.421 24.421c-3.905 3.905-3.905 10.237 0 14.143 3.905 3.905 10.237 3.905 14.142 0z"/><path d="m106.412 270.403v11.969c0 14.82 2.165 29.46 6.437 43.513.025.083.052.166.079.248 11.382 37.218 36.452 68.126 70.619 87.051.008.005.017.01.025.014 21.987 12.178 46.981 18.614 72.279 18.614s50.292-6.437 72.279-18.614c.004-.002.008-.004.011-.007 6.058-3.353 11.945-7.172 17.502-11.355 25.118-18.911 43.977-45.787 53.128-75.699.028-.084.055-.168.081-.253 4.272-14.052 6.438-28.692 6.438-43.514v-11.969c0-5.523-4.477-10-10-10h-278.878c-5.523.002-10 4.479-10 10.002zm149.439 141.411c-18.066 0-35.945-3.785-52.328-11.018 13.085-15.035 31.963-23.746 52.328-23.746 18.554 0 36.007 7.229 49.141 20.353 1.099 1.099 2.158 2.232 3.178 3.397-16.38 7.23-34.258 11.014-52.319 11.014zm77.764-25.955c-2.435 1.833-4.943 3.585-7.507 5.245-2.163-2.74-4.493-5.362-6.977-7.845-16.913-16.901-39.387-26.209-63.281-26.209-27.756 0-53.367 12.565-70.257 34.047-21.619-14.044-38.799-34.502-48.896-58.114h238.308c-8.871 20.766-23.245 39.216-41.39 52.876zm-207.203-105.456h258.878v1.969c0 10.371-1.222 20.635-3.638 30.605h-251.602c-2.416-9.971-3.638-20.235-3.638-30.605z"/></g></g></g></svg>